<svg id="Layer_3" data-name="Layer 3" xmlns="http://www.w3.org/2000/svg" viewBox="0 0 1902.46 644.92"><defs><style>.cls-1{fill:#67984e;}.cls-2{fill:#ae6546;}.cls-3{fill:#fff;}.cls-4{fill:none;stroke:#000;stroke-linecap:round;stroke-linejoin:round;stroke-width:4px;}.cls-5{font-size:160px;font-family:Arial-BoldMT, Arial;font-weight:700;}.cls-6{letter-spacing:-0.01em;}.cls-7{letter-spacing:0.02em;}.cls-8{letter-spacing:0.01em;}</style></defs><title>pepe</title><g id="Layer_2_copy_3" data-name="Layer 2 copy 3"><path class="cls-1" d="M799.77,309.88a37.6,37.6,0,0,0-8.16-7.76c3.49-4.28,6.18-11.08,1.26-18.24-2-2.92-5.84-6.34-11.55-9.9.63-4.41.91-13.05-5.21-17.7-3.46-2.64-11.12-7.74-23.64-12.82.81-3.09,1.41-7.58-.52-11-3.78-6.72-25.46-27.4-73.66-39.48A155.62,155.62,0,0,0,662.83,146c-17.35-33-44.86-51.61-79.54-53.82C510.71,87.59,463,117.29,451.44,125.35c-16.28-18-52.08-54.13-127.79-46.86C287.19,82,244.43,89.68,198.7,137.05c-35.54,36.8-54.85,82.5-65.32,119.44-7.25.74-28.51,4.93-47.75,28.46-34.29,41.89-60,95.77-68.9,144.13C-8.46,566.9,23.3,613.27,38.63,635.62,55,659.52,103.8,681.38,176,697.14c75.87,16.56,170.41,25.32,273.53,25.32h1.37c58.78-.05,101.37-16.55,136.66-32A354.32,354.32,0,0,0,669.5,639.5c3.49-.28,7-.58,10.32-.94,37.79-4.2,57.75-14.86,57.75-30.82a100.25,100.25,0,0,0-4.36-27.62c16.37-9.72,38.09-32.06,36.73-44.54-1.56-14.34-10.55-15.05-18.87-15.05.4-7.55-.25-24.54-10.9-44.85s-35.8-45.36-42.16-51.54c43.93-16.25,53.81-42.84,55-46.42,9.34-3.44,16.91-7.49,20.23-12.18,5.95-8.43,7.76-13.38,8.25-15.94.69-.29,1.3-.57,1.83-.81,7.81-3.67,15.4-13.45,18.05-23.23C803,319.27,802.5,313.87,799.77,309.88Z" transform="translate(-7.34 -77.54)"/><path class="cls-2" d="M769.94,535.58c-1.65-15.13-11.55-15.08-20.24-15-4.53,0-10.2,2.55-18.79,6.38-19,8.49-50.93,22.7-108.36,27.89-41.45,3.76-104.12-.93-167.6-12.57L402.5,532.7c-28.05-5.09-52.28-9.48-65.35-12-57.09-11.07-77.7-.07-89.29,10.77-12.64,11.83-19.79,35.67-20.09,36.69v0a4.66,4.66,0,0,0-.12.63v0a2.26,2.26,0,0,0,0,.31c-.16,3.29-.53,30.54,28.55,36.59,15.82,3.3,30.94,2.76,46.93,2.18,12.68-.47,25.79-.95,39.61.61,8.69,1,22.91,3.78,40.91,7.34,47,9.27,118.07,23.32,193.08,25.85h.23c10.55-.34,21.7-.41,33.5-.48,23.63-.15,48.07-.29,69.38-2.66,37.79-4.2,57.75-14.86,57.75-30.82a100.11,100.11,0,0,0-4.36-27.62C749.56,570.41,771.3,548.06,769.94,535.58Z" transform="translate(-7.34 -77.54)"/><path class="cls-3" d="M796.88,311.88c-6.25-9.11-38-26.28-61.12-35.2s-44-18.12-94.69-11.89c-39.94,4.92-91.8,46-91.8,46h-.11c.51-8.76-.68-16.59-5.11-19.51C517.52,273.91,454.68,258.63,401,262.2c-82.2,5.46-118.09,65.43-118.09,65.43s52,36.52,77,40.17,70.23,10.15,102.48,4.74c29.9-5,67.86-20,77.27-28.39,0,0,13.58,15.38,33.27,19.23,42.93,8.36,75.12,6.76,95,4.93,59.55-5.46,102.74-17.42,113.93-22.7S803.13,321,796.88,311.88Z" transform="translate(-7.34 -77.54)"/><path class="cls-4" d="M748.12,245.51s3-7.33.77-11.34c-4.49-8-40.85-42.36-133.57-46.37-100.73-4.35-146.7,13-146.7,13" transform="translate(-7.34 -77.54)"/><path class="cls-4" d="M450.93,130.06s50.46-39.54,132.14-34.34,92,100,92,100" transform="translate(-7.34 -77.54)"/><path class="cls-4" d="M537.81,272.6s64.71-25.23,137.31-21.33S783.74,276.76,790,285.86s-3.77,16.65-3.77,16.65" transform="translate(-7.34 -77.54)"/><path class="cls-4" d="M476.94,195.72s0-36.53-26-65.66C434.09,111.2,399.94,74.7,324,82c-32.73,3.14-76.12,9.2-122.76,57.5-71.79,74.33-76.48,184.1-76.48,184.1" transform="translate(-7.34 -77.54)"/><path class="cls-4" d="M244.4,202.31s61-48,117.83-40.52c88.7,11.71,135,64.77,135,64.77" transform="translate(-7.34 -77.54)"/><path class="cls-4" d="M253.77,282.35s36.41-4.29,57.22-19.9c15.32-11.49,17.43-14,42.4-26.79s132.14-22.89,170.37,1.82c5.43,3.51,8.59,10.76,10.15,13.38s1.3,8.21,1.3,8.21,47.34-26,135.25-26c66.07,0,97,21.07,103.53,26s3.42,16.77,3.42,16.77" transform="translate(-7.34 -77.54)"/><path class="cls-4" d="M544.05,291.33s7.28-4.43,3.38-9S527.14,256,462.9,248.41c-14.25-1.67-76.74-9.11-119.91,17.43-21,12.87-61.65,31-71.53,34.59s-26.28,6.24-37.2,6.24S204.87,303,204.87,303" transform="translate(-7.34 -77.54)"/><path class="cls-4" d="M537.81,345.62s5.47,14.56,2,21.4c-7,13.65-32.72,28.84-82.72,28.87-158.4.11-176.74-32.77-176.74-32.77" transform="translate(-7.34 -77.54)"/><path class="cls-4" d="M240.89,312.4A95.19,95.19,0,0,1,223,323.58c-9.95,4.62-22.24,4-22.24,4" transform="translate(-7.34 -77.54)"/><path class="cls-4" d="M308.39,388.09s-13.46,1.56-25.55-2.15c-10-3.07-22-8-22-8" transform="translate(-7.34 -77.54)"/><path class="cls-4" d="M486.83,406.82s-21.33,13-44.22,25-55.67,12-55.67,12" transform="translate(-7.34 -77.54)"/><path class="cls-4" d="M778.14,347.9s.29,4.18-7.79,15.61c-11.32,16-83.11,25-83.11,25" transform="translate(-7.34 -77.54)"/><path class="cls-4" d="M558.88,413.84s69.84,29.91,133.43,8.58c49-16.42,57.41-46,57.41-46" transform="translate(-7.34 -77.54)"/><path class="cls-4" d="M282.9,327.64s35.9-60,118.09-65.45c53.7-3.56,116.53,11.71,143.06,29.14,10.77,7.07,2.35,43.17-2.73,51s-46.69,24.82-78.94,30.23-77.52-1.1-102.49-4.74S282.9,327.64,282.9,327.64Z" transform="translate(-7.34 -77.54)"/><path class="cls-4" d="M549.27,310.83s51.86-41.12,91.8-46c50.72-6.25,71.53,3,94.68,11.89s54.88,26.08,61.13,35.19-3.9,28.46-15.09,33.74-54.36,17.24-113.93,22.7c-19.83,1.82-52,3.42-94.94-4.94-19.7-3.84-33.27-19.23-33.27-19.23" transform="translate(-7.34 -77.54)"/><path class="cls-4" d="M747.2,524.12s3.64-20.54-10.15-46.82c-11.85-22.58-42.92-52-42.92-52" transform="translate(-7.34 -77.54)"/><path class="cls-4" d="M280.3,561.32s19.9-3.51,61.65.39,94.94,30.82,207.32,30.82c43.55,0,153.19,0,179.72-14,16.72-8.86,38.59-32.09,37.45-42.53-1.28-11.81-7.62-12-16.72-11.9-12.54.06-43.75,26.73-126.86,34.27C573,562.85,505,555,454.31,545.71S357,528.11,336.48,524.12c-53.58-10.4-74.13-1.43-86.22,9.89s-19.12,35.11-19.12,35.11" transform="translate(-7.34 -77.54)"/><path class="cls-4" d="M729,578.49a97.54,97.54,0,0,1,5.07,29.26c0,15.22-23,23.8-54.62,27.31s-70.63,2.11-102.62,3.12c-104.17-3.51-202.49-29.65-233.7-33.16s-58.14,3.12-86.23-2.73-25.75-33.17-25.75-33.17" transform="translate(-7.34 -77.54)"/><path class="cls-4" d="M256.11,638.18S239,641.59,221,628.82c-28.09-19.9-20.67-31.21-20.67-31.21" transform="translate(-7.34 -77.54)"/><path class="cls-4" d="M668.06,636.1s-33.71,30-81.87,51.11C553,701.78,510.43,718.9,450.93,719c-216.93.16-377.68-39-409.41-85.32C26.25,611.35-4.78,566.26,20.19,429.7c7.5-41,30.22-96.2,68.15-142.54C110.71,259.83,136,259.83,136,259.83" transform="translate(-7.34 -77.54)"/><path d="M658.6,273.12c-23.83,0-49.9,18.64-49,44.42.79,22.68,0,44,49,42.06,26.79.94,49-14,49-42.06C707.58,291.75,682.43,273.12,658.6,273.12Zm-11.68,50.46a5.59,5.59,0,1,1,5.6-5.59A5.59,5.59,0,0,1,646.92,323.58Zm-1.82-26.86c-4.09,0-7.41-2.37-7.41-5.3s3.32-5.3,7.41-5.3,7.42,2.38,7.42,5.3S649.2,296.72,645.1,296.72Zm26.81,19.54a9.77,9.77,0,1,1,9.77-9.77A9.76,9.76,0,0,1,671.91,316.26Z" transform="translate(-7.34 -77.54)"/><path d="M456.65,316.19c-3.28-25.05-12-39.76-51.5-45.75-28.12-4.25-51.5,20.49-51.5,45.75s0,46.93,51.5,49C433.57,366.35,460.82,347.9,456.65,316.19Zm-64.34,6.93a5.36,5.36,0,1,1,5.36-5.36A5.37,5.37,0,0,1,392.31,323.12Zm-1.82-26.4a7.19,7.19,0,1,1,7.18-7.18A7.18,7.18,0,0,1,390.49,296.72Zm29.6,21.79a11.84,11.84,0,1,1,11.83-11.84A11.84,11.84,0,0,1,420.09,318.51Z" transform="translate(-7.34 -77.54)"/></g><text class="cls-5" transform="translate(939.89 293.22)">Ну и ч<tspan class="cls-6" x="484.69" y="0">т</tspan><tspan x="560.94" y="0">о ты </tspan><tspan class="cls-7" x="0" y="192">т</tspan><tspan class="cls-8" x="82.34" y="192">у</tspan><tspan x="173.28" y="192">т </tspan><tspan class="cls-6" x="296.09" y="192">з</tspan><tspan x="373.52" y="192">абыл?</tspan></text></svg>